<svg width="26" height="26" viewBox="0 0 26 26" fill="none" xmlns="http://www.w3.org/2000/svg">
<path d="M7.92887 10.5459L7.39854 10.0156L7.3982 10.0159L7.92887 10.5459ZM7.9734 11.0762C8.26648 11.3689 8.74135 11.3686 9.03406 11.0756C9.32677 10.7825 9.32647 10.3076 9.03339 10.0149L7.9734 11.0762ZM12.7129 10.5459L12.1825 10.0156L12.1822 10.0159L12.7129 10.5459ZM12.7574 11.0762C13.0505 11.3689 13.5254 11.3686 13.8181 11.0756C14.1108 10.7825 14.1105 10.3076 13.8174 10.0149L12.7574 11.0762ZM7.97339 11.0762C7.83906 10.9421 7.83893 10.7244 7.97308 10.5901L9.03441 11.6501C9.48566 11.1983 9.48521 10.4662 9.03338 10.0149L7.97339 11.0762ZM7.97308 10.5901C8.10725 10.4558 8.3249 10.4556 8.45922 10.5898L7.39923 11.6511C7.85105 12.1024 8.58315 12.1019 9.03441 11.6501L7.97308 10.5901ZM8.45922 10.5898C8.59355 10.7239 8.59368 10.9416 8.45953 11.0759L7.3982 10.0159C6.94695 10.4678 6.9474 11.1998 7.39923 11.6511L8.45922 10.5898ZM8.4592 11.0763C8.45925 11.0762 8.45931 11.0761 8.45937 11.0761C8.45943 11.076 8.45949 11.076 8.45956 11.0759L7.3989 10.0152C7.39884 10.0153 7.39878 10.0153 7.39872 10.0154C7.39867 10.0155 7.3986 10.0155 7.39854 10.0156L8.4592 11.0763ZM8.45922 11.0762C8.32502 11.2103 8.10761 11.2103 7.9734 11.0762L9.03339 10.0149C8.58197 9.56404 7.85066 9.56404 7.39923 10.0149L8.45922 11.0762ZM12.7574 11.0762C12.6231 10.9421 12.6229 10.7244 12.7571 10.5901L13.8184 11.6501C14.2697 11.1983 14.2692 10.4662 13.8174 10.0149L12.7574 11.0762ZM12.7571 10.5901C12.8912 10.4558 13.1089 10.4556 13.2432 10.5898L12.1832 11.6511C12.6351 12.1024 13.3671 12.1019 13.8184 11.6501L12.7571 10.5901ZM13.2432 10.5898C13.3776 10.7239 13.3777 10.9416 13.2435 11.0759L12.1822 10.0159C11.7309 10.4678 11.7314 11.1998 12.1832 11.6511L13.2432 10.5898ZM13.2432 11.0763C13.2433 11.0762 13.2433 11.0761 13.2434 11.0761C13.2434 11.076 13.2435 11.076 13.2436 11.0759L12.1829 10.0152C12.1828 10.0153 12.1828 10.0153 12.1827 10.0154C12.1827 10.0155 12.1826 10.0155 12.1825 10.0156L13.2432 11.0763ZM13.2432 11.0762C13.109 11.2103 12.8916 11.2103 12.7574 11.0762L13.8174 10.0149C13.366 9.56404 12.6347 9.56404 12.1832 10.0149L13.2432 11.0762Z" fill="#646464"/>
<path d="M22.742 6.67552V14.9598V14.9597C22.7426 16.8599 21.2027 18.4009 19.3025 18.4015V18.4015H14.0764L8.65969 22.7349V18.4015H6.68261V18.4015C4.78238 18.4015 3.24194 16.8611 3.24194 14.9609V14.9609V6.67553V6.67553C3.24194 4.7753 4.78237 3.23486 6.68261 3.23486H19.3013V3.23486C21.2015 3.23486 22.742 4.77529 22.742 6.67553V6.67552Z" stroke="#646464" stroke-width="1.5" stroke-linecap="round" stroke-linejoin="round"/>
<path d="M18.4167 14.083H16.25" stroke="#646464" stroke-width="1.5" stroke-linecap="round" stroke-linejoin="round"/>
</svg>
