<svg width="17" height="20" viewBox="0 0 17 20" fill="none" xmlns="http://www.w3.org/2000/svg">
<g clip-path="url(#clip0_0_3272)">
<path d="M0.000825903 11.7871V11.5681C0.0329459 10.9202 0.240596 10.2925 0.602356 9.7496C1.2045 9.0975 1.6167 8.2983 1.79571 7.43598C1.79571 6.7695 1.79571 6.0935 1.85393 5.42703C2.15469 2.21842 5.32728 0 8.4611 0H8.5387C11.6725 0 14.845 2.21842 15.1555 5.42703C15.2137 6.0935 15.1555 6.7695 15.204 7.43598C15.3854 8.3003 15.7972 9.1019 16.3974 9.7591C16.7618 10.2972 16.9698 10.9227 16.9989 11.5681V11.7776C17.0206 12.648 16.7208 13.4968 16.1548 14.1674C15.407 14.9515 14.3921 15.4393 13.3024 15.5384C10.107 15.8812 6.883 15.8812 3.68762 15.5384C2.59914 15.435 1.58576 14.9479 0.835206 14.1674C0.277996 13.4963 -0.0177641 12.6526 0.000825903 11.7871Z" stroke="#646464" stroke-width="1.5" stroke-linecap="round" stroke-linejoin="round"/>
<path d="M6.05505 18.8521C6.55432 19.4787 7.28752 19.8843 8.09232 19.979C8.89722 20.0737 9.70732 19.8498 10.3434 19.3567C10.539 19.2109 10.715 19.0413 10.8673 18.8521" stroke="#646464" stroke-width="1.5" stroke-linecap="round" stroke-linejoin="round"/>
</g>
<defs>
<clipPath id="clip0_0_3272">
<rect width="17" height="20.0002" fill="white"/>
</clipPath>
</defs>
</svg>
